<?xml version="1.0" encoding="UTF-8" standalone="no"?>
<!DOCTYPE svg PUBLIC "-//W3C//DTD SVG 1.1//EN"
 "http://www.w3.org/Graphics/SVG/1.1/DTD/svg11.dtd">
<!-- Generated by graphviz version 12.2.1 (20241206.2353)
 -->
<!-- Title: classes_my_module01 Pages: 1 -->
<svg width="636pt" height="292pt"
 viewBox="0.00 0.00 636.12 292.00" xmlns="http://www.w3.org/2000/svg" xmlns:xlink="http://www.w3.org/1999/xlink">
<g id="graph0" class="graph" transform="scale(1 1) rotate(0) translate(4 288)">
<title>classes_my_module01</title>
<polygon fill="white" stroke="none" points="-4,4 -4,-288 632.12,-288 632.12,4 -4,4"/>
<!-- my_module01.config.ExtraBaseModel -->
<g id="node1" class="node">
<title>my_module01.config.ExtraBaseModel</title>
<polygon fill="none" stroke="black" points="0,-201.75 0,-275.25 163.75,-275.25 163.75,-201.75 0,-201.75"/>
<text text-anchor="start" x="36.12" y="-257.95" font-family="Times,serif" font-size="14.00">ExtraBaseModel</text>
<polyline fill="none" stroke="black" points="0,-250.75 163.75,-250.75"/>
<text text-anchor="start" x="8" y="-233.45" font-family="Times,serif" font-size="14.00">model_config : ConfigDict</text>
<polyline fill="none" stroke="black" points="0,-226.25 163.75,-226.25"/>
<text text-anchor="start" x="80" y="-208.95" font-family="Times,serif" font-size="14.00"> </text>
</g>
<!-- my_module01._base.MyClass -->
<g id="node2" class="node">
<title>my_module01._base.MyClass</title>
<polygon fill="none" stroke="black" points="181.62,-193.5 181.62,-283.5 628.12,-283.5 628.12,-193.5 181.62,-193.5"/>
<text text-anchor="start" x="380.5" y="-266.2" font-family="Times,serif" font-size="14.00">MyClass</text>
<polyline fill="none" stroke="black" points="181.62,-259 628.12,-259"/>
<text text-anchor="start" x="387.62" y="-241.7" font-family="Times,serif" font-size="14.00">config</text>
<text text-anchor="start" x="387.62" y="-225.2" font-family="Times,serif" font-size="14.00">items</text>
<polyline fill="none" stroke="black" points="181.62,-218 628.12,-218"/>
<text text-anchor="start" x="189.62" y="-200.7" font-family="Times,serif" font-size="14.00">run(items: Union[List[float], None], threshold: Union[float, None]): List[float]</text>
</g>
<!-- my_module01.config.MyClassConfigPM -->
<g id="node3" class="node">
<title>my_module01.config.MyClassConfigPM</title>
<polygon fill="none" stroke="black" points="262.75,-0.5 262.75,-140 431,-140 431,-0.5 262.75,-0.5"/>
<text text-anchor="start" x="293.62" y="-122.7" font-family="Times,serif" font-size="14.00">MyClassConfigPM</text>
<polyline fill="none" stroke="black" points="262.75,-115.5 431,-115.5"/>
<text text-anchor="start" x="270.75" y="-98.2" font-family="Times,serif" font-size="14.00">max_length : Optional[int]</text>
<text text-anchor="start" x="270.75" y="-81.7" font-family="Times,serif" font-size="14.00">max_value : Optional[float]</text>
<text text-anchor="start" x="270.75" y="-65.2" font-family="Times,serif" font-size="14.00">min_length : Optional[int]</text>
<text text-anchor="start" x="270.75" y="-48.7" font-family="Times,serif" font-size="14.00">min_value : Optional[float]</text>
<text text-anchor="start" x="270.75" y="-32.2" font-family="Times,serif" font-size="14.00">threshold : Optional[float]</text>
<polyline fill="none" stroke="black" points="262.75,-25 431,-25"/>
<text text-anchor="start" x="345" y="-7.7" font-family="Times,serif" font-size="14.00"> </text>
</g>
<!-- my_module01.config.MyClassConfigPM&#45;&gt;my_module01.config.ExtraBaseModel -->
<g id="edge1" class="edge">
<title>my_module01.config.MyClassConfigPM&#45;&gt;my_module01.config.ExtraBaseModel</title>
<path fill="none" stroke="black" d="M262.3,-124.31C225.61,-147.33 183.25,-173.9 148.8,-195.51"/>
<polygon fill="none" stroke="black" points="147.2,-192.39 140.59,-200.67 150.92,-198.32 147.2,-192.39"/>
</g>
<!-- my_module01.config.MyClassConfigPM&#45;&gt;my_module01._base.MyClass -->
<g id="edge2" class="edge">
<title>my_module01.config.MyClassConfigPM&#45;&gt;my_module01._base.MyClass</title>
<path fill="none" stroke="black" d="M341,-140.41C341.92,-152.24 344.12,-164.19 348.38,-175 349.36,-177.5 350.49,-179.96 351.75,-182.38"/>
<polygon fill="black" stroke="black" points="351.71,-182.32 358.25,-185.36 357.95,-192.57 351.41,-189.53 351.71,-182.32"/>
<text text-anchor="middle" x="365.62" y="-161.7" font-family="Times,serif" font-size="14.00" fill="green">config</text>
</g>
<!-- my_module01.config.MyClassConfigPM&#45;&gt;my_module01._base.MyClass -->
<g id="edge3" class="edge">
<title>my_module01.config.MyClassConfigPM&#45;&gt;my_module01._base.MyClass</title>
<path fill="none" stroke="black" d="M376.32,-140.49C378.63,-146.55 380.85,-152.61 382.88,-158.5 385.37,-165.75 387.79,-173.44 390.05,-181.06"/>
<polygon fill="black" stroke="black" points="390.01,-180.94 395.52,-185.6 393.33,-192.47 387.83,-187.81 390.01,-180.94"/>
<text text-anchor="middle" x="411.73" y="-161.7" font-family="Times,serif" font-size="14.00" fill="green">__config</text>
</g>
</g>
</svg>
