<?xml version="1.0" encoding="UTF-8" standalone="no"?>
<!DOCTYPE svg PUBLIC "-//W3C//DTD SVG 1.1//EN"
 "http://www.w3.org/Graphics/SVG/1.1/DTD/svg11.dtd">
<!-- Generated by graphviz version 12.2.1 (20241206.2353)
 -->
<!-- Title: G Pages: 1 -->
<svg width="452pt" height="443pt"
 viewBox="0.00 0.00 451.50 443.00" xmlns="http://www.w3.org/2000/svg" xmlns:xlink="http://www.w3.org/1999/xlink">
<g id="graph0" class="graph" transform="scale(1 1) rotate(0) translate(4 439)">
<title>G</title>
<polygon fill="white" stroke="none" points="-4,4 -4,-439 447.5,-439 447.5,4 -4,4"/>
<g id="clust2" class="cluster">
<title>cluster_a7ec5fba</title>
<polygon fill="none" stroke="black" stroke-dasharray="1,5" points="66.25,-147 66.25,-427 427,-427 427,-147 66.25,-147"/>
<text text-anchor="middle" x="246.62" y="-409.7" font-family="Times,serif" font-size="14.00">File: _base</text>
</g>
<g id="clust3" class="cluster">
<title>cluster_f6ebf41f</title>
<polygon fill="none" stroke="black" stroke-dasharray="1,5" points="74.25,-155 74.25,-394 419,-394 419,-155 74.25,-155"/>
<text text-anchor="middle" x="246.62" y="-376.7" font-family="Times,serif" font-size="14.00">Class: MyClass</text>
</g>
<g id="clust4" class="cluster">
<title>cluster_6e1eda92</title>
<polygon fill="none" stroke="black" stroke-dasharray="1,5" points="294,-8 294,-139 435.5,-139 435.5,-8 294,-8"/>
<text text-anchor="middle" x="364.75" y="-121.7" font-family="Times,serif" font-size="14.00">File: _utils</text>
</g>
<!-- Legend -->
<g id="node1" class="node">
<title>Legend</title>
<polygon fill="none" stroke="black" points="1,-119.75 1,-138.25 265,-138.25 265,-119.75 1,-119.75"/>
<text text-anchor="start" x="80.88" y="-123.95" font-family="Times,serif" font-size="14.00">Code2flow Legend</text>
<polygon fill="none" stroke="black" points="1,-25.75 1,-119.75 265,-119.75 265,-25.75 1,-25.75"/>
<polygon fill="none" stroke="black" points="3,-95.25 3,-117.75 213,-117.75 213,-95.25 3,-95.25"/>
<text text-anchor="start" x="62.25" y="-101.45" font-family="Times,serif" font-size="14.00">Regular function</text>
<polygon fill="#cccccc" stroke="none" points="213,-95.25 213,-117.75 263,-117.75 263,-95.25 213,-95.25"/>
<polygon fill="none" stroke="black" points="213,-95.25 213,-117.75 263,-117.75 263,-95.25 213,-95.25"/>
<polygon fill="none" stroke="black" points="3,-72.75 3,-95.25 213,-95.25 213,-72.75 3,-72.75"/>
<text text-anchor="start" x="14.25" y="-78.95" font-family="Times,serif" font-size="14.00">Trunk function (nothing calls this)</text>
<polygon fill="#966f33" stroke="none" points="213,-72.75 213,-95.25 263,-95.25 263,-72.75 213,-72.75"/>
<polygon fill="none" stroke="black" points="213,-72.75 213,-95.25 263,-95.25 263,-72.75 213,-72.75"/>
<polygon fill="none" stroke="black" points="3,-50.25 3,-72.75 213,-72.75 213,-50.25 3,-50.25"/>
<text text-anchor="start" x="6" y="-56.45" font-family="Times,serif" font-size="14.00">Leaf function (this calls nothing else)</text>
<polygon fill="#6db33f" stroke="none" points="213,-50.25 213,-72.75 263,-72.75 263,-50.25 213,-50.25"/>
<polygon fill="none" stroke="black" points="213,-50.25 213,-72.75 263,-72.75 263,-50.25 213,-50.25"/>
<polygon fill="none" stroke="black" points="3,-27.75 3,-50.25 213,-50.25 213,-27.75 3,-27.75"/>
<text text-anchor="start" x="72.38" y="-33.95" font-family="Times,serif" font-size="14.00">Function call</text>
<polygon fill="none" stroke="black" points="213,-27.75 213,-50.25 263,-50.25 263,-27.75 213,-27.75"/>
<text text-anchor="start" x="230.88" y="-33.95" font-family="Times,serif" font-size="14.00">→</text>
<polygon fill="none" stroke="black" points="2,-26.75 2,-118.75 264,-118.75 264,-26.75 2,-26.75"/>
<polygon fill="none" stroke="black" points="0,-24.75 0,-139.25 266,-139.25 266,-24.75 0,-24.75"/>
</g>
<!-- node_c98dd5ea -->
<g id="node2" class="node">
<title>node_c98dd5ea</title>
<path fill="#6db33f" stroke="black" d="M399,-334C399,-334 330.5,-334 330.5,-334 324.5,-334 318.5,-328 318.5,-322 318.5,-322 318.5,-310 318.5,-310 318.5,-304 324.5,-298 330.5,-298 330.5,-298 399,-298 399,-298 405,-298 411,-304 411,-310 411,-310 411,-322 411,-322 411,-328 405,-334 399,-334"/>
<text text-anchor="middle" x="364.75" y="-310.95" font-family="Times,serif" font-size="14.00">67: __call__()</text>
</g>
<!-- node_bfbce99a -->
<g id="node3" class="node">
<title>node_bfbce99a</title>
<path fill="#966f33" stroke="black" d="M166.5,-307C166.5,-307 99.5,-307 99.5,-307 93.5,-307 87.5,-301 87.5,-295 87.5,-295 87.5,-283 87.5,-283 87.5,-277 93.5,-271 99.5,-271 99.5,-271 166.5,-271 166.5,-271 172.5,-271 178.5,-277 178.5,-283 178.5,-283 178.5,-295 178.5,-295 178.5,-301 172.5,-307 166.5,-307"/>
<text text-anchor="middle" x="133" y="-283.95" font-family="Times,serif" font-size="14.00">33: __init__()</text>
</g>
<!-- node_bfbce99a&#45;&gt;node_c98dd5ea -->
<g id="edge1" class="edge">
<title>node_bfbce99a&#45;&gt;node_c98dd5ea</title>
<path fill="none" stroke="#56b4e9" stroke-width="2" d="M178.79,-302.5C178.79,-302.5 305.24,-302.5 305.24,-302.5"/>
<polygon fill="#56b4e9" stroke="#56b4e9" stroke-width="2" points="305.24,-306 315.24,-302.5 305.24,-299 305.24,-306"/>
</g>
<!-- node_c704ba2d -->
<g id="node4" class="node">
<title>node_c704ba2d</title>
<path fill="#966f33" stroke="black" d="M171.75,-199C171.75,-199 94.25,-199 94.25,-199 88.25,-199 82.25,-193 82.25,-187 82.25,-187 82.25,-175 82.25,-175 82.25,-169 88.25,-163 94.25,-163 94.25,-163 171.75,-163 171.75,-163 177.75,-163 183.75,-169 183.75,-175 183.75,-175 183.75,-187 183.75,-187 183.75,-193 177.75,-199 171.75,-199"/>
<text text-anchor="middle" x="133" y="-175.95" font-family="Times,serif" font-size="14.00">195: __repr__()</text>
</g>
<!-- node_7c7303aa -->
<g id="node8" class="node">
<title>node_7c7303aa</title>
<path fill="#6db33f" stroke="black" d="M407.25,-52C407.25,-52 322.25,-52 322.25,-52 316.25,-52 310.25,-46 310.25,-40 310.25,-40 310.25,-28 310.25,-28 310.25,-22 316.25,-16 322.25,-16 322.25,-16 407.25,-16 407.25,-16 413.25,-16 419.25,-22 419.25,-28 419.25,-28 419.25,-40 419.25,-40 419.25,-46 413.25,-52 407.25,-52"/>
<text text-anchor="middle" x="364.75" y="-28.95" font-family="Times,serif" font-size="14.00">44: obj_to_repr()</text>
</g>
<!-- node_c704ba2d&#45;&gt;node_7c7303aa -->
<g id="edge2" class="edge">
<title>node_c704ba2d&#45;&gt;node_7c7303aa</title>
<path fill="none" stroke="#0072b2" stroke-width="2" d="M183.95,-181C227.61,-181 283.5,-181 283.5,-181 283.5,-181 283.5,-38.38 283.5,-38.38 283.5,-38.38 297.08,-38.38 297.08,-38.38"/>
<polygon fill="#0072b2" stroke="#0072b2" stroke-width="2" points="297.08,-41.88 307.08,-38.38 297.08,-34.88 297.08,-41.88"/>
</g>
<!-- node_6e4ac0dd -->
<g id="node5" class="node">
<title>node_6e4ac0dd</title>
<path fill="#966f33" stroke="black" d="M167.62,-253C167.62,-253 98.38,-253 98.38,-253 92.38,-253 86.38,-247 86.38,-241 86.38,-241 86.38,-229 86.38,-229 86.38,-223 92.38,-217 98.38,-217 98.38,-217 167.62,-217 167.62,-217 173.62,-217 179.62,-223 179.62,-229 179.62,-229 179.62,-241 179.62,-241 179.62,-247 173.62,-253 167.62,-253"/>
<text text-anchor="middle" x="133" y="-229.95" font-family="Times,serif" font-size="14.00">190: __str__()</text>
</g>
<!-- node_9aa10e49 -->
<g id="node7" class="node">
<title>node_9aa10e49</title>
<path fill="#6db33f" stroke="black" d="M415.5,-106C415.5,-106 314,-106 314,-106 308,-106 302,-100 302,-94 302,-94 302,-82 302,-82 302,-76 308,-70 314,-70 314,-70 415.5,-70 415.5,-70 421.5,-70 427.5,-76 427.5,-82 427.5,-82 427.5,-94 427.5,-94 427.5,-100 421.5,-106 415.5,-106"/>
<text text-anchor="middle" x="364.75" y="-82.95" font-family="Times,serif" font-size="14.00">12: clean_obj_dict()</text>
</g>
<!-- node_6e4ac0dd&#45;&gt;node_9aa10e49 -->
<g id="edge3" class="edge">
<title>node_6e4ac0dd&#45;&gt;node_9aa10e49</title>
<path fill="none" stroke="#0072b2" stroke-width="2" d="M180.1,-235C232.69,-235 310.5,-235 310.5,-235 310.5,-235 310.5,-119.35 310.5,-119.35"/>
<polygon fill="#0072b2" stroke="#0072b2" stroke-width="2" points="314,-119.35 310.5,-109.35 307,-119.35 314,-119.35"/>
</g>
<!-- node_058e8c25 -->
<g id="node6" class="node">
<title>node_058e8c25</title>
<path fill="#966f33" stroke="black" d="M156.38,-361C156.38,-361 109.62,-361 109.62,-361 103.62,-361 97.62,-355 97.62,-349 97.62,-349 97.62,-337 97.62,-337 97.62,-331 103.62,-325 109.62,-325 109.62,-325 156.38,-325 156.38,-325 162.38,-325 168.38,-331 168.38,-337 168.38,-337 168.38,-349 168.38,-349 168.38,-355 162.38,-361 156.38,-361"/>
<text text-anchor="middle" x="133" y="-337.95" font-family="Times,serif" font-size="14.00">107: run()</text>
</g>
<!-- node_058e8c25&#45;&gt;node_c98dd5ea -->
<g id="edge4" class="edge">
<title>node_058e8c25&#45;&gt;node_c98dd5ea</title>
<path fill="none" stroke="#0072b2" stroke-width="2" d="M168.7,-329.5C168.7,-329.5 305.17,-329.5 305.17,-329.5"/>
<polygon fill="#0072b2" stroke="#0072b2" stroke-width="2" points="305.17,-333 315.17,-329.5 305.17,-326 305.17,-333"/>
</g>
</g>
</svg>
