<?xml version="1.0" encoding="UTF-8" standalone="no"?>
<!DOCTYPE svg PUBLIC "-//W3C//DTD SVG 1.1//EN"
 "http://www.w3.org/Graphics/SVG/1.1/DTD/svg11.dtd">
<!-- Generated by graphviz version 12.2.1 (20241206.2353)
 -->
<!-- Title: packages_my_module01 Pages: 1 -->
<svg width="370pt" height="188pt"
 viewBox="0.00 0.00 369.62 188.00" xmlns="http://www.w3.org/2000/svg" xmlns:xlink="http://www.w3.org/1999/xlink">
<g id="graph0" class="graph" transform="scale(1 1) rotate(0) translate(4 184)">
<title>packages_my_module01</title>
<polygon fill="white" stroke="none" points="-4,4 -4,-184 365.62,-184 365.62,4 -4,4"/>
<!-- my_module01 -->
<g id="node1" class="node">
<title>my_module01</title>
<polygon fill="none" stroke="black" points="214.75,-36 119.25,-36 119.25,0 214.75,0 214.75,-36"/>
<text text-anchor="middle" x="167" y="-12.95" font-family="Times,serif" font-size="14.00">my_module01</text>
</g>
<!-- my_module01.__version__ -->
<g id="node2" class="node">
<title>my_module01.__version__</title>
<polygon fill="none" stroke="black" points="166,-180 0,-180 0,-144 166,-144 166,-180"/>
<text text-anchor="middle" x="83" y="-156.95" font-family="Times,serif" font-size="14.00">my_module01.__version__</text>
</g>
<!-- my_module01&#45;&gt;my_module01.__version__ -->
<g id="edge1" class="edge">
<title>my_module01&#45;&gt;my_module01.__version__</title>
<path fill="none" stroke="black" d="M130.83,-36.42C116.7,-45.11 101.8,-57.01 93,-72 82.3,-90.24 80.15,-114.22 80.48,-132.69"/>
<polygon fill="black" stroke="black" points="80.92,-142.43 75.97,-132.64 80.75,-138.65 80.47,-132.44 80.47,-132.44 80.47,-132.44 80.75,-138.65 84.96,-132.24 80.92,-142.43"/>
</g>
<!-- my_module01._base -->
<g id="node3" class="node">
<title>my_module01._base</title>
<polygon fill="none" stroke="black" points="232,-108 102,-108 102,-72 232,-72 232,-108"/>
<text text-anchor="middle" x="167" y="-84.95" font-family="Times,serif" font-size="14.00">my_module01._base</text>
</g>
<!-- my_module01&#45;&gt;my_module01._base -->
<g id="edge2" class="edge">
<title>my_module01&#45;&gt;my_module01._base</title>
<path fill="none" stroke="black" d="M167,-36.3C167,-43.68 167,-52.48 167,-60.75"/>
<polygon fill="black" stroke="black" points="167,-70.68 162.5,-60.68 167,-66.9 167,-60.68 167,-60.68 167,-60.68 167,-66.9 171.5,-60.68 167,-70.68"/>
</g>
<!-- my_module01.config -->
<g id="node5" class="node">
<title>my_module01.config</title>
<polygon fill="none" stroke="black" points="321.88,-180 188.12,-180 188.12,-144 321.88,-144 321.88,-180"/>
<text text-anchor="middle" x="255" y="-156.95" font-family="Times,serif" font-size="14.00">my_module01.config</text>
</g>
<!-- my_module01&#45;&gt;my_module01.config -->
<g id="edge3" class="edge">
<title>my_module01&#45;&gt;my_module01.config</title>
<path fill="none" stroke="black" d="M202.47,-36.38C216.66,-45.12 231.79,-57.07 241,-72 252.17,-90.11 255.42,-114.09 256.02,-132.6"/>
<polygon fill="black" stroke="black" points="256.08,-142.37 251.51,-132.39 256.05,-138.58 256.01,-132.37 256.01,-132.37 256.01,-132.37 256.05,-138.58 260.51,-132.34 256.08,-142.37"/>
</g>
<!-- my_module01._base&#45;&gt;my_module01.__version__ -->
<g id="edge4" class="edge">
<title>my_module01._base&#45;&gt;my_module01.__version__</title>
<path fill="none" stroke="black" d="M146.24,-108.3C136.04,-116.8 123.58,-127.19 112.42,-136.49"/>
<polygon fill="black" stroke="black" points="104.75,-142.87 109.55,-133.01 107.66,-140.45 112.43,-136.47 112.43,-136.47 112.43,-136.47 107.66,-140.45 115.32,-139.93 104.75,-142.87"/>
</g>
<!-- my_module01._base&#45;&gt;my_module01.config -->
<g id="edge5" class="edge">
<title>my_module01._base&#45;&gt;my_module01.config</title>
<path fill="none" stroke="black" d="M188.75,-108.3C199.54,-116.89 212.75,-127.39 224.53,-136.76"/>
<polygon fill="black" stroke="black" points="232.24,-142.89 221.61,-140.19 229.28,-140.54 224.41,-136.67 224.41,-136.67 224.41,-136.67 229.28,-140.54 227.21,-133.15 232.24,-142.89"/>
</g>
<!-- my_module01._utils -->
<g id="node4" class="node">
<title>my_module01._utils</title>
<polygon fill="none" stroke="black" points="361.62,-36 232.38,-36 232.38,0 361.62,0 361.62,-36"/>
<text text-anchor="middle" x="297" y="-12.95" font-family="Times,serif" font-size="14.00">my_module01._utils</text>
</g>
</g>
</svg>
